<svg width="260" height="260" viewBox="0 0 260 260" fill="none" xmlns="http://www.w3.org/2000/svg">
<g clip-path="url(#clip0_387_25547)">
<rect width="260" height="260" fill="#1C1D22"/>
<path d="M35.68 214H114.16C151.12 214 172.72 196 172.72 165.52C172.72 144.88 160.72 130.48 144.4 124.48C155.68 119.68 167.68 107.92 167.68 88C167.68 58 147.52 41.68 109.84 41.68H35.68V214ZM74.08 110.8V74.56H105.76C121.36 74.56 130 80.56 130 92.56C130 104.56 121.36 110.8 105.76 110.8H74.08ZM74.08 142H110.56C125.92 142 134.32 149.92 134.32 161.44C134.32 172.96 125.92 180.88 110.56 180.88H74.08V142Z" fill="white"/>
<path d="M186.259 214H230.419V171.04H186.259V214Z" fill="#36EC82"/>
</g>
<defs>
<clipPath id="clip0_387_25547">
<rect width="260" height="260" fill="white"/>
</clipPath>
</defs>
</svg>
